<svg xmlns="http://www.w3.org/2000/svg" width="410" height="94.58" viewBox="0 0 410 94.58">
  <path id="George.Logo.Small" d="M38.029,48.5V33.884H71.616V63.775c-6.478,4.438-12.121,7.4-17.026,8.968a58.5,58.5,0,0,1-17.578,2.408c-8.423,0-15.174-1.485-20.448-4.351A28.646,28.646,0,0,1,4.351,58.22,41.9,41.9,0,0,1,0,38.878,40.975,40.975,0,0,1,4.72,18.806,31.37,31.37,0,0,1,18.691,5.944C23.413,3.624,29.8,2.518,37.844,2.518c7.771,0,13.6.74,17.488,2.128a22.444,22.444,0,0,1,9.622,6.572,29.075,29.075,0,0,1,5.74,11.194l-21.007,3.7A10.9,10.9,0,0,0,45.244,20.1a12.955,12.955,0,0,0-7.862-2.134A14.513,14.513,0,0,0,26,22.871C23.228,26.2,21.744,31.479,21.744,38.6c0,7.594,1.483,13.048,4.347,16.291,2.868,3.332,6.848,4.9,11.937,4.9a24.766,24.766,0,0,0,6.939-1.014,42.273,42.273,0,0,0,7.588-3.6V48.5Zm101.684,4.908H100.578c.369,3.142,1.2,5.456,2.59,7.028a9.642,9.642,0,0,0,7.4,3.15,11.593,11.593,0,0,0,5.458-1.393,12.891,12.891,0,0,0,3.428-3.146L138.6,60.808a26.913,26.913,0,0,1-10.641,10.918c-4.071,2.219-10.085,3.338-17.859,3.338-6.752,0-12.028-.933-15.914-2.874a23.145,23.145,0,0,1-9.624-9.063,26.975,26.975,0,0,1-3.793-14.531c0-7.862,2.5-14.342,7.588-19.239,5.182-5,12.216-7.4,21.19-7.4q10.965,0,17.208,3.323a22.017,22.017,0,0,1,9.716,9.533c2.128,4.162,3.237,9.624,3.237,16.375Zm6.57-4.72a25.885,25.885,0,0,1,7.864-19.245c5.274-5,12.4-7.491,21.279-7.491,10.18,0,17.951,2.952,23.135,8.88a25.765,25.765,0,0,1,6.292,17.576c0,7.864-2.594,14.156-7.776,19.155s-12.4,7.5-21.557,7.5c-8.235,0-14.805-2.046-19.894-6.2A25.015,25.015,0,0,1,146.283,48.689Zm68.089-25.632H232.6v8.332c1.76-3.614,3.61-6.02,5.464-7.409A11.257,11.257,0,0,1,245,21.953a19.9,19.9,0,0,1,9.436,2.676l-6.016,13.886a15.885,15.885,0,0,0-5.548-1.4,6.7,6.7,0,0,0-5.923,3.152Q233.9,44.705,233.9,56.922V73.944H214.372Zm81.145,0h18.32V73.39a20.6,20.6,0,0,1-2.034,9.072,18.139,18.139,0,0,1-5.462,7.03,19.538,19.538,0,0,1-8.511,3.886,52.012,52.012,0,0,1-11.935,1.2c-10.269,0-17.3-1.483-21.093-4.625a14.984,14.984,0,0,1-5.742-12.3c0-.653,0-1.483.093-2.592l18.971,2.124a5.826,5.826,0,0,0,2.217,3.7,9.013,9.013,0,0,0,5.375,1.479c2.866,0,4.9-.74,6.288-2.225,1.385-1.568,2.122-4.156,2.122-7.862V64.512a21.308,21.308,0,0,1-5.734,5,20.859,20.859,0,0,1-9.712,2.31c-6.85,0-12.3-2.959-16.565-8.878-2.963-4.168-4.347-9.712-4.347-16.655,0-7.959,1.848-13.973,5.651-18.135,3.875-4.17,8.874-6.2,15.077-6.2a20.63,20.63,0,0,1,9.8,2.027,20.135,20.135,0,0,1,7.217,6.667Zm86.6,30.352H342.98c.379,3.142,1.209,5.456,2.592,7.028a9.587,9.587,0,0,0,7.31,3.15,11.719,11.719,0,0,0,5.559-1.393,12.8,12.8,0,0,0,3.327-3.146l19.245,1.759c-2.959,5.089-6.48,8.7-10.639,10.918s-10.085,3.338-17.865,3.338c-6.749,0-12.022-.933-15.908-2.874a22.55,22.55,0,0,1-9.626-9.063c-2.59-3.985-3.8-8.882-3.8-14.531,0-7.862,2.5-14.342,7.584-19.239,5.1-5,12.215-7.4,21.194-7.4,7.217,0,13.046,1.1,17.212,3.323a21.4,21.4,0,0,1,9.624,9.533q3.328,6.243,3.325,16.375ZM395.285,0a14.679,14.679,0,1,1-14.651,14.715A14.756,14.756,0,0,1,395.285,0ZM362.323,44.064c-.464-3.793-1.485-6.48-3.053-8.142a9.013,9.013,0,0,0-6.48-2.406,8.785,8.785,0,0,0-7.485,3.7c-1.209,1.479-1.945,3.8-2.229,6.85ZM395.285,1.6a13.1,13.1,0,1,0,13.1,13.11A13.157,13.157,0,0,0,395.285,1.6ZM277.106,47.764c0,3.7.839,6.387,2.4,8.237a7.844,7.844,0,0,0,6.206,2.584,8.127,8.127,0,0,0,6.1-2.68q2.494-2.772,2.493-8.326c0-3.791-.923-6.568-2.588-8.517a8.048,8.048,0,0,0-6.377-2.957,7.342,7.342,0,0,0-5.927,2.68C277.945,40.551,277.106,43.6,277.106,47.764Zm-111.207.83c0,4.634.925,7.957,2.775,10.085a8.582,8.582,0,0,0,6.939,3.239,8.471,8.471,0,0,0,6.848-3.146c1.848-2.122,2.775-5.544,2.775-10.363,0-4.345-.927-7.677-2.775-9.811a8.513,8.513,0,0,0-6.756-3.235,8.921,8.921,0,0,0-7.032,3.235Q165.9,41.929,165.9,48.594Zm-45.986-4.531c-.369-3.793-1.387-6.48-3.051-8.142a9.037,9.037,0,0,0-6.48-2.406,8.8,8.8,0,0,0-7.493,3.7,13.557,13.557,0,0,0-2.221,6.85ZM398.621,18.3l-1.665-6.614V18.85a1.211,1.211,0,0,1-.251.867,1.014,1.014,0,0,1-.74.307.99.99,0,0,1-.68-.307,1.211,1.211,0,0,1-.247-.867V10.633a1.07,1.07,0,0,1,.373-.925,1.792,1.792,0,0,1,.923-.251h.68a2.379,2.379,0,0,1,.8.126.834.834,0,0,1,.433.369,3.954,3.954,0,0,1,.245.927l1.543,5.688,1.494-5.688a3.588,3.588,0,0,1,.311-.927.536.536,0,0,1,.369-.369,2.538,2.538,0,0,1,.865-.126h.618a2.053,2.053,0,0,1,.983.251,1.265,1.265,0,0,1,.311.925V18.85a1.192,1.192,0,0,1-.247.867.974.974,0,0,1-.678.307.806.806,0,0,1-.682-.307,1.242,1.242,0,0,1-.3-.867V11.682L401.406,18.3a4.191,4.191,0,0,1-.253.927,1.337,1.337,0,0,1-.369.554,1.3,1.3,0,0,1-.748.247.878.878,0,0,1-.606-.187,2.341,2.341,0,0,1-.441-.369,1.9,1.9,0,0,1-.185-.556C398.745,18.666,398.685,18.481,398.621,18.3Zm-6.055-7.17h-4.141v2.6h3.459a1.332,1.332,0,0,1,.74.243.744.744,0,0,1,0,1.119.988.988,0,0,1-.74.247h-3.459v3.4a1.552,1.552,0,0,1-.249.987,1.3,1.3,0,0,1-.8.307,1.012,1.012,0,0,1-.742-.307,1.583,1.583,0,0,1-.3-.987V10.757a1.348,1.348,0,0,1,.181-.744.571.571,0,0,1,.371-.369,1.477,1.477,0,0,1,.744-.187h4.943a1.037,1.037,0,0,1,.744.251.663.663,0,0,1,.245.55.715.715,0,0,1-.245.62A1.029,1.029,0,0,1,392.566,11.126Z" fill="#fff" fill-rule="evenodd"/>
</svg>
